<svg xmlns="http://www.w3.org/2000/svg" viewBox="0 0 16 16">
  <path fill="currentColor" d="M2 3.25A1.25 1.25 0 0 1 3.25 2h9.5A1.25 1.25 0 0 1 14 3.25v9.5A1.25 1.25 0 0 1 12.75 14h-9.5A1.25 1.25 0 0 1 2 12.75zm1.25-.25a.25.25 0 0 0-.25.25v9.5c0 .138.112.25.25.25h9.5a.25.25 0 0 0 .25-.25v-9.5a.25.25 0 0 0-.25-.25z"/>
  <path fill="currentColor" d="M11.354 5.354a.5.5 0 0 0-.708-.708L6.5 8.793L5.354 7.646a.5.5 0 1 0-.708.708l1.5 1.5a.5.5 0 0 0 .708 0z"/>
  <path fill="currentColor" d="M5 5.5a.5.5 0 0 1 .5-.5h3a.5.5 0 0 1 0 1h-3a.5.5 0 0 1-.5-.5m0 5a.5.5 0 0 1 .5-.5h5a.5.5 0 0 1 0 1h-5a.5.5 0 0 1-.5-.5"/>
</svg>
